<?xml version="1.0" encoding="utf-8"?>
<svg xmlns="http://www.w3.org/2000/svg" xmlns:svg="http://www.w3.org/2000/svg" version="1.1" viewBox="0 0 1400 2100">
	<title>The cover for the Standard Ebooks edition of The Airlords of Han, by Philip Francis Nowlan</title>
	<style type="text/css">
		path{
			fill: #fff;
		}

		.title-box{
			fill: #000;
			fill-opacity: .75;
		}
	</style>
	<path class="title-box" d="M 50,1620 1350,1620 1350,2050 50,2050 Z"/>
	<g>
		<path d="m 605.10526,1713.2456 18.33918,0 0,61.7544 17.59065,0 0,-61.7544 18.33918,0 0,-15.4386 -54.26901,0 0,15.4386 z"/>
		<path d="m 688.29971,1744.0292 24.88889,0 0,30.9708 17.59064,0 0,-77.193 -17.59064,0 0,30.7836 -24.88889,0 0,-30.7836 -17.59065,0 0,77.193 17.59065,0 0,-30.9708 z"/>
		<path d="m 791.14474,1697.807 -44.16374,0 0,77.193 44.16374,0 0,-15.4386 -26.5731,0 0,-15.5322 25.45029,0 0,-15.4386 -25.45029,0 0,-15.345 26.5731,0 0,-15.4386 z"/>
	</g>
	<g>
		<path d="m 255.14034,1797.807 -16.2807,0 -31.15789,77.193 18.90058,0 5.7076,-15.4386 29.38012,0 5.7076,15.4386 18.90059,0 -31.1579,-77.193 z m 0.56141,46.3158 -17.40351,0 8.60819,-22.4561 0.18713,0 8.60819,22.4561 z"/>
		<path d="m 311.80847,1797.807 -17.59064,0 0,77.193 17.59064,0 0,-77.193 z"/>
		<path d="m 328.0921,1797.807 0,77.193 17.59064,0 0,-30.5029 23.57895,30.5029 22.36257,0 -26.5731,-31.9064 c 9.4503,-2.9942 15.81287,-10.7603 15.81287,-22.3626 0,-15.1579 -10.8538,-22.924 -25.16959,-22.924 l -27.60234,0 z m 17.59064,34.2456 0,-20.2105 2.05848,0 c 6.64328,0 14.59649,0.4678 14.59649,10.1053 0,9.6374 -7.95321,10.1052 -14.59649,10.1052 l -2.05848,0 z"/>
		<path d="m 417.75147,1797.807 -17.59065,0 0,77.193 44.16375,0 0,-15.4386 -26.5731,0 0,-61.7544 z"/>
		<path d="m 454.51315,1836.3567 c 0,22.5497 16.09357,40.0468 38.92398,40.0468 22.17544,0 38.83041,-17.4971 38.83041,-40.0468 0,-22.5497 -17.40351,-39.9532 -38.83041,-39.9532 -21.23977,0 -38.92398,17.4035 -38.92398,39.9532 z m 18.99415,0 c 0,-11.5087 6.36258,-23.0175 19.92983,-23.0175 13.66082,0 19.83626,11.5088 19.83626,23.0175 0,11.5088 -5.80117,23.0176 -19.83626,23.0176 -14.40936,0 -19.92983,-11.5088 -19.92983,-23.0176 z"/>
		<path d="m 545.02923,1797.807 0,77.193 17.59065,0 0,-30.5029 23.57894,30.5029 22.36258,0 -26.5731,-31.9064 c 9.45029,-2.9942 15.81286,-10.7603 15.81286,-22.3626 0,-15.1579 -10.8538,-22.924 -25.16959,-22.924 l -27.60234,0 z m 17.59065,34.2456 0,-20.2105 2.05847,0 c 6.64328,0 14.5965,0.4678 14.5965,10.1053 0,9.6374 -7.95322,10.1052 -14.5965,10.1052 l -2.05847,0 z"/>
		<path d="m 617.09796,1797.807 0,77.193 22.36257,0 c 21.23977,0 38.92398,-16.0936 38.92398,-38.6433 0,-22.4561 -17.77778,-38.5497 -38.92398,-38.5497 l -22.36257,0 z m 17.59064,61.4737 0,-45.7544 2.71345,0 c 13.09942,0 21.98831,10.0117 21.98831,22.924 -0.0936,12.9123 -8.98246,22.8304 -21.98831,22.8304 l -2.71345,0 z"/>
		<path d="m 717.79387,1796.4035 c -12.44445,0 -25.16959,9.1696 -25.16959,23.579 0,8.0467 5.4269,15.2514 14.69005,19.8362 9.1696,4.5848 17.40351,7.1111 17.40351,12.7252 0,7.2046 -7.29824,7.5789 -11.1345,7.5789 -8.60819,0 -18.90058,-8.7017 -18.90058,-8.7017 l -8.79533,14.7836 c 0,0 10.94737,10.1988 29.00585,10.1988 15.06433,0 29.09942,-6.4561 29.09942,-24.8889 0,-10.1052 -9.45029,-17.4035 -18.05848,-21.0526 -8.79532,-3.7427 -16.09357,-6.8304 -16.09357,-11.1345 0,-4.2105 3.18129,-6.924 9.16959,-6.924 7.95322,0 15.62573,5.3333 15.62573,5.3333 l 7.11111,-14.035 c 0,0 -9.91813,-7.2983 -23.95321,-7.2983 z"/>
		<path d="m 784.33775,1836.3567 c 0,22.5497 16.09357,40.0468 38.92398,40.0468 22.17544,0 38.83041,-17.4971 38.83041,-40.0468 0,-22.5497 -17.40351,-39.9532 -38.83041,-39.9532 -21.23977,0 -38.92398,17.4035 -38.92398,39.9532 z m 18.99415,0 c 0,-11.5087 6.36258,-23.0175 19.92983,-23.0175 13.66082,0 19.83626,11.5088 19.83626,23.0175 0,11.5088 -5.80117,23.0176 -19.83626,23.0176 -14.40936,0 -19.92983,-11.5088 -19.92983,-23.0176 z"/>
		<path d="m 919.4854,1797.807 -44.63158,0 0,77.193 17.59064,0 0,-30.9708 24.98246,0 0,-15.4386 -24.98246,0 0,-15.345 27.04094,0 0,-15.4386 z"/>
		<path d="m 981.02631,1844.0292 24.88889,0 0,30.9708 17.5906,0 0,-77.193 -17.5906,0 0,30.7836 -24.88889,0 0,-30.7836 -17.59065,0 0,77.193 17.59065,0 0,-30.9708 z"/>
		<path d="m 1078.9123,1797.807 -16.2807,0 -31.1579,77.193 18.9006,0 5.7076,-15.4386 29.3801,0 5.7076,15.4386 18.9006,0 -31.1579,-77.193 z m 0.5614,46.3158 -17.4035,0 8.6082,-22.4561 0.1871,0 8.6082,22.4561 z"/>
		<path d="m 1135.5804,1827.0936 0.1872,0 30.69,47.9064 17.5907,0 0,-77.193 -17.5907,0 0,47.9064 -0.1871,0 -30.6901,-47.9064 -17.5906,0 0,77.193 17.5906,0 0,-47.9064 z"/>
	</g>
	<g>
		<path d="m 339.80197,1936.4032 0,38.5968 8.7954,0 0,-14.3159 5.28659,0 c 7.53222,0 13.19309,-4.4445 13.19309,-12.3978 0,-8 -5.66087,-11.8831 -13.19309,-11.8831 l -14.08199,0 z m 8.7954,17.2633 0,-10.2457 2.47955,0 c 3.46201,0 6.7369,1.1696 6.7369,5.1462 0,3.9299 -3.27489,5.0995 -6.7369,5.0995 l -2.47955,0 z"/>
		<path d="m 384.75624,1959.5145 12.44455,0 0,15.4855 8.79539,0 0,-38.5968 -8.79539,0 0,15.3919 -12.44455,0 0,-15.3919 -8.79539,0 0,38.5968 8.79539,0 0,-15.4855 z"/>
		<path d="m 425.39249,1936.4032 -8.79539,0 0,38.5968 8.79539,0 0,-38.5968 z"/>
		<path d="m 444.82974,1936.4032 -8.79539,0 0,38.5968 22.08205,0 0,-7.7194 -13.28666,0 0,-30.8774 z"/>
		<path d="m 476.23711,1936.4032 -8.79539,0 0,38.5968 8.79539,0 0,-38.5968 z"/>
		<path d="m 486.87897,1936.4032 0,38.5968 8.79539,0 0,-14.3159 5.28659,0 c 7.53223,0 13.19309,-4.4445 13.19309,-12.3978 0,-8 -5.66086,-11.8831 -13.19309,-11.8831 l -14.08198,0 z m 8.79539,17.2633 0,-10.2457 2.47955,0 c 3.46202,0 6.7369,1.1696 6.7369,5.1462 0,3.9299 -3.27488,5.0995 -6.7369,5.0995 l -2.47955,0 z"/>
		<path d="m 563.14632,1936.4032 -22.31596,0 0,38.5968 8.79539,0 0,-15.4855 12.49133,0 0,-7.7194 -12.49133,0 0,-7.6725 13.52057,0 0,-7.7194 z"/>
		<path d="m 572.3291,1936.4032 0,38.5968 8.7954,0 0,-15.2516 11.78957,15.2516 11.18137,0 -13.28665,-15.9533 c 4.72518,-1.4971 7.90649,-5.3802 7.90649,-11.1814 0,-7.579 -5.42694,-11.4621 -12.58489,-11.4621 l -13.80129,0 z m 8.7954,17.1229 0,-10.1053 1.02925,0 c 3.32166,0 7.2983,0.2339 7.2983,5.0527 0,4.8187 -3.97664,5.0526 -7.2983,5.0526 l -1.02925,0 z"/>
		<path d="m 630.46621,1936.4032 -8.14042,0 -15.57907,38.5968 9.45037,0 2.85382,-7.7194 14.69018,0 2.85382,7.7194 9.45037,0 -15.57907,-38.5968 z m 0.2807,23.1581 -8.70182,0 4.30413,-11.2282 0.0936,0 4.30413,11.2282 z"/>
		<path d="m 661.30049,1951.0466 0.0936,0 15.34515,23.9534 8.79539,0 0,-38.5968 -8.79539,0 0,23.9534 -0.0936,0 -15.34515,-23.9534 -8.79539,0 0,38.5968 8.79539,0 0,-23.9534 z"/>
		<path d="m 715.23291,1967.0467 c -8.84217,0 -12.72525,-6.1755 -12.72525,-11.3685 0,-5.1462 3.88308,-11.3217 12.72525,-11.3217 4.49127,0 7.57901,2.386 7.57901,2.386 l 3.74272,-7.4855 c 0,0 -4.30413,-3.5556 -12.67846,-3.5556 -10.94746,0 -20.91245,8.9826 -20.91245,20.0704 0,11.041 10.01177,19.93 20.91245,19.93 8.37433,0 12.67846,-3.5556 12.67846,-3.5556 l -3.74272,-7.4855 c 0,0 -3.08774,2.386 -7.57901,2.386 z"/>
		<path d="m 743.76088,1936.4032 -8.79539,0 0,38.5968 8.79539,0 0,-38.5968 z"/>
		<path d="m 767.71132,1935.7014 c -6.22227,0 -12.58489,4.5849 -12.58489,11.7896 0,4.0234 2.71347,7.6258 7.34508,9.9182 4.58484,2.2924 8.70183,3.5556 8.70183,6.3626 0,3.6024 -3.64915,3.7895 -5.5673,3.7895 -4.30413,0 -9.45037,-4.3509 -9.45037,-4.3509 l -4.39769,7.3919 c 0,0 5.47373,5.0995 14.50304,5.0995 7.53222,0 14.54982,-3.2281 14.54982,-12.4446 0,-5.0527 -4.72518,-8.7018 -9.02931,-10.5264 -4.3977,-1.8713 -8.04685,-3.4152 -8.04685,-5.5673 0,-2.1053 1.59066,-3.462 4.58483,-3.462 3.97664,0 7.81293,2.6667 7.81293,2.6667 l 3.55559,-7.0176 c 0,0 -4.95911,-3.6492 -11.97671,-3.6492 z"/>
		<path d="m 816.50987,1951.0466 0.0936,0 15.34515,23.9534 8.7954,0 0,-38.5968 -8.7954,0 0,23.9534 -0.0936,0 -15.34516,-23.9534 -8.79539,0 0,38.5968 8.79539,0 0,-23.9534 z"/>
		<path d="m 849.63511,1955.6782 c 0,11.275 8.04685,20.0236 19.46215,20.0236 11.08781,0 19.41536,-8.7486 19.41536,-20.0236 0,-11.2749 -8.70182,-19.9768 -19.41536,-19.9768 -10.61997,0 -19.46215,8.7019 -19.46215,19.9768 z m 9.49716,0 c 0,-5.7544 3.18131,-11.5089 9.96499,-11.5089 6.83046,0 9.91821,5.7545 9.91821,11.5089 0,5.7544 -2.90061,11.5089 -9.91821,11.5089 -7.20474,0 -9.96499,-5.7545 -9.96499,-11.5089 z"/>
		<path d="m 925.54576,1975 9.73108,0 10.99424,-38.5968 -9.73108,0 -6.59654,26.4797 -0.23392,0 -7.0176,-26.4797 -6.64333,0 -7.0176,26.4797 -0.23392,0 -6.59654,-26.4797 -9.77786,0 10.99424,38.5968 9.77786,0 6.17549,-21.661 6.17548,21.661 z"/>
		<path d="m 962.1761,1936.4032 -8.79539,0 0,38.5968 22.08205,0 0,-7.7194 -13.28666,0 0,-30.8774 z"/>
		<path d="m 1005.1216,1936.4032 -8.14038,0 -15.57907,38.5968 9.45036,0 2.85383,-7.7194 14.69016,0 2.8538,7.7194 9.4504,0 -15.5791,-38.5968 z m 0.2807,23.1581 -8.70179,0 4.30409,-11.2282 0.094,0 4.3041,11.2282 z"/>
		<path d="m 1035.9559,1951.0466 0.094,0 15.3451,23.9534 8.7954,0 0,-38.5968 -8.7954,0 0,23.9534 -0.094,0 -15.3451,-23.9534 -8.7954,0 0,38.5968 8.7954,0 0,-23.9534 z"/>
	</g>
</svg>
